<svg xmlns="http://www.w3.org/2000/svg" xmlns:xlink="http://www.w3.org/1999/xlink" width="500" zoomAndPan="magnify" viewBox="0 0 375 374.999991" height="500" preserveAspectRatio="xMidYMid meet" version="1.0"><defs><g/><clipPath id="8ce8d7de83"><path d="M 119.3125 153.835938 L 345.574219 153.835938 L 345.574219 235.191406 L 119.3125 235.191406 Z M 119.3125 153.835938 " clip-rule="nonzero"/></clipPath><clipPath id="a95359a6cf"><path d="M 176.261719 153.835938 L 339.511719 153.835938 C 341.625 153.835938 343.574219 154.984375 344.601562 156.835938 C 345.625 158.683594 345.5625 160.945312 344.441406 162.738281 L 304.679688 226.289062 C 301.214844 231.828125 295.144531 235.191406 288.609375 235.191406 L 125.363281 235.191406 C 123.246094 235.191406 121.300781 234.042969 120.273438 232.191406 C 119.25 230.34375 119.308594 228.082031 120.433594 226.289062 L 160.195312 162.738281 C 163.660156 157.199219 169.730469 153.835938 176.261719 153.835938 Z M 176.261719 153.835938 " clip-rule="nonzero"/></clipPath><clipPath id="e495e83cae"><path d="M 298 119.699219 L 304 119.699219 L 304 142 L 298 142 Z M 298 119.699219 " clip-rule="nonzero"/></clipPath><clipPath id="35ca31efca"><path d="M 298 200 L 304 200 L 304 222.449219 L 298 222.449219 Z M 298 200 " clip-rule="nonzero"/></clipPath><clipPath id="0aa31af4e0"><path d="M 249.542969 170 L 273 170 L 273 176 L 249.542969 176 Z M 249.542969 170 " clip-rule="nonzero"/></clipPath><clipPath id="8ccdedca89"><path d="M 328 169 L 351.542969 169 L 351.542969 174 L 328 174 Z M 328 169 " clip-rule="nonzero"/></clipPath></defs><g clip-path="url(#8ce8d7de83)"><g clip-path="url(#a95359a6cf)"><path fill="#000000" d="M 114.863281 153.835938 L 350.023438 153.835938 L 350.023438 235.191406 L 114.863281 235.191406 Z M 114.863281 153.835938 " fill-opacity="1" fill-rule="nonzero"/></g></g><path fill="#db1935" d="M 300.542969 129.484375 C 277.292969 129.484375 258.453125 148.296875 258.453125 171.503906 C 258.453125 194.703125 277.292969 213.515625 300.542969 213.515625 C 323.789062 213.515625 342.628906 194.703125 342.628906 171.503906 C 342.628906 148.296875 323.789062 129.484375 300.542969 129.484375 Z M 300.542969 134.894531 C 320.757812 134.894531 337.210938 151.316406 337.210938 171.503906 C 337.210938 191.683594 320.757812 208.105469 300.542969 208.105469 C 280.320312 208.105469 263.867188 191.683594 263.867188 171.503906 C 263.867188 151.316406 280.320312 134.894531 300.542969 134.894531 " fill-opacity="1" fill-rule="nonzero"/><path fill="#db1935" d="M 305.125 171.503906 C 305.125 174.03125 303.074219 176.078125 300.542969 176.078125 C 298.007812 176.078125 295.960938 174.03125 295.960938 171.503906 C 295.960938 168.976562 298.007812 166.925781 300.542969 166.925781 C 303.074219 166.925781 305.125 168.976562 305.125 171.503906 " fill-opacity="1" fill-rule="nonzero"/><g clip-path="url(#e495e83cae)"><path fill="#db1935" d="M 300.542969 141.972656 C 299.160156 141.972656 298.039062 140.851562 298.039062 139.472656 L 298.039062 122.210938 C 298.039062 120.832031 299.160156 119.71875 300.542969 119.71875 C 301.921875 119.71875 303.039062 120.832031 303.039062 122.210938 L 303.039062 139.472656 C 303.039062 140.851562 301.921875 141.972656 300.542969 141.972656 " fill-opacity="1" fill-rule="nonzero"/></g><g clip-path="url(#35ca31efca)"><path fill="#db1935" d="M 300.542969 222.457031 C 299.160156 222.457031 298.039062 221.339844 298.039062 219.964844 L 298.039062 202.703125 C 298.039062 201.324219 299.160156 200.207031 300.542969 200.207031 C 301.921875 200.207031 303.039062 201.324219 303.039062 202.703125 L 303.039062 219.964844 C 303.039062 221.339844 301.921875 222.457031 300.542969 222.457031 " fill-opacity="1" fill-rule="nonzero"/></g><g clip-path="url(#0aa31af4e0)"><path fill="#db1935" d="M 269.613281 175.035156 L 252.320312 175.035156 C 250.9375 175.035156 249.816406 173.917969 249.816406 172.542969 C 249.816406 171.164062 250.9375 170.046875 252.320312 170.046875 L 269.613281 170.046875 C 270.996094 170.046875 272.117188 171.164062 272.117188 172.542969 C 272.117188 173.917969 270.996094 175.035156 269.613281 175.035156 " fill-opacity="1" fill-rule="nonzero"/></g><g clip-path="url(#8ccdedca89)"><path fill="#db1935" d="M 348.789062 173.996094 L 331.496094 173.996094 C 330.117188 173.996094 328.996094 172.882812 328.996094 171.503906 C 328.996094 170.125 330.117188 169.007812 331.496094 169.007812 L 348.789062 169.007812 C 350.171875 169.007812 351.289062 170.125 351.289062 171.503906 C 351.289062 172.882812 350.171875 173.996094 348.789062 173.996094 " fill-opacity="1" fill-rule="nonzero"/></g><g fill="#ffffff" fill-opacity="1"><g transform="translate(23.379991, 223.791357)"><g><path d="M 38.734375 -9.34375 L 16.578125 -9.34375 L 12.890625 0 L -0.359375 0 L 21.5 -50.671875 L 34.75 -50.671875 L 56.109375 0 L 42.34375 0 Z M 34.96875 -19.109375 L 27.71875 -37.859375 L 20.34375 -19.109375 Z M 34.96875 -19.109375 "/></g></g></g><g fill="#ffffff" fill-opacity="1"><g transform="translate(74.991406, 223.791357)"><g><path d="M 6.546875 -54.984375 C 7.773438 -56.210938 9.351562 -56.828125 11.28125 -56.828125 C 13.21875 -56.828125 14.800781 -56.210938 16.03125 -54.984375 C 17.257812 -53.753906 17.875 -52.171875 17.875 -50.234375 C 17.875 -48.304688 17.257812 -46.710938 16.03125 -45.453125 C 14.800781 -44.203125 13.21875 -43.578125 11.28125 -43.578125 C 9.351562 -43.578125 7.773438 -44.203125 6.546875 -45.453125 C 5.316406 -46.710938 4.703125 -48.304688 4.703125 -50.234375 C 4.703125 -52.171875 5.316406 -53.753906 6.546875 -54.984375 Z M 17.453125 0 L 5 0 L 5 -39.015625 L 17.453125 -39.015625 Z M 17.453125 0 "/></g></g></g><g fill="#ffffff" fill-opacity="1"><g transform="translate(93.377305, 223.791357)"><g><path d="M 17.515625 -39.015625 L 17.515625 -32.4375 C 20.265625 -37.113281 24.488281 -39.5 30.1875 -39.59375 L 30.1875 -28.3125 C 26.613281 -28.644531 23.691406 -28.050781 21.421875 -26.53125 C 19.160156 -25.007812 17.859375 -22.847656 17.515625 -20.046875 L 17.515625 0 L 5 0 L 5 -39.015625 Z M 17.515625 -39.015625 "/></g></g></g><g fill="#ffffff" fill-opacity="1"><g transform="translate(157.798852, 220.717299)"><g><path d="M 29.09375 -51.109375 C 36.96875 -51.109375 43.507812 -48.65625 48.71875 -43.75 C 53.925781 -38.851562 56.53125 -32.738281 56.53125 -25.40625 C 56.53125 -18.019531 53.910156 -11.84375 48.671875 -6.875 C 43.441406 -1.90625 36.914062 0.578125 29.09375 0.578125 C 21.28125 0.578125 14.765625 -1.894531 9.546875 -6.84375 C 4.335938 -11.789062 1.734375 -17.976562 1.734375 -25.40625 C 1.734375 -32.789062 4.335938 -38.921875 9.546875 -43.796875 C 14.765625 -48.671875 21.28125 -51.109375 29.09375 -51.109375 Z M 29.25 -40.328125 C 25.289062 -40.328125 21.910156 -38.890625 19.109375 -36.015625 C 16.304688 -33.140625 14.90625 -29.578125 14.90625 -25.328125 C 14.90625 -21.085938 16.316406 -17.503906 19.140625 -14.578125 C 21.960938 -11.660156 25.328125 -10.203125 29.234375 -10.203125 C 33.148438 -10.203125 36.472656 -11.660156 39.203125 -14.578125 C 41.929688 -17.503906 43.296875 -21.085938 43.296875 -25.328125 C 43.296875 -29.578125 41.929688 -33.140625 39.203125 -36.015625 C 36.472656 -38.890625 33.15625 -40.328125 29.25 -40.328125 Z M 29.25 -40.328125 "/></g></g></g><g fill="#ffffff" fill-opacity="1"><g transform="translate(211.942796, 220.717299)"><g><path d="M 29.53125 -39.453125 C 35.03125 -39.453125 39.457031 -37.601562 42.8125 -33.90625 C 46.164062 -30.21875 47.84375 -25.359375 47.84375 -19.328125 C 47.84375 -13.390625 46.203125 -8.609375 42.921875 -4.984375 C 39.640625 -1.367188 35.273438 0.4375 29.828125 0.4375 C 24.710938 0.4375 20.726562 -1.445312 17.875 -5.21875 L 17.875 14.046875 L 5.359375 14.046875 L 5.359375 -39.015625 L 17.875 -39.015625 L 17.875 -33.875 C 20.769531 -37.59375 24.65625 -39.453125 29.53125 -39.453125 Z M 26.5 -9.484375 C 29.101562 -9.484375 31.210938 -10.4375 32.828125 -12.34375 C 34.441406 -14.25 35.25 -16.695312 35.25 -19.6875 C 35.25 -22.675781 34.441406 -25.113281 32.828125 -27 C 31.210938 -28.882812 29.101562 -29.828125 26.5 -29.828125 C 23.988281 -29.828125 21.921875 -28.882812 20.296875 -27 C 18.679688 -25.113281 17.875 -22.675781 17.875 -19.6875 C 17.875 -16.644531 18.671875 -14.179688 20.265625 -12.296875 C 21.859375 -10.421875 23.9375 -9.484375 26.5 -9.484375 Z M 26.5 -9.484375 "/></g></g></g><g fill="#ffffff" fill-opacity="1"><g transform="translate(257.400478, 220.717299)"><g><path d="M 18.96875 -39.59375 C 24.707031 -39.59375 30.0625 -38.125 35.03125 -35.1875 L 30.765625 -27.078125 C 25.941406 -29.679688 21.835938 -30.984375 18.453125 -30.984375 C 15.898438 -30.984375 14.625 -30.09375 14.625 -28.3125 C 14.625 -27.34375 15.320312 -26.53125 16.71875 -25.875 C 18.125 -25.226562 19.835938 -24.640625 21.859375 -24.109375 C 23.890625 -23.578125 25.90625 -22.910156 27.90625 -22.109375 C 29.90625 -21.316406 31.601562 -20.050781 33 -18.3125 C 34.40625 -16.570312 35.109375 -14.445312 35.109375 -11.9375 C 35.109375 -8.03125 33.585938 -4.976562 30.546875 -2.78125 C 27.503906 -0.59375 23.546875 0.5 18.671875 0.5 C 11.773438 0.5 5.9375 -1.332031 1.15625 -5 L 5.140625 -12.953125 C 9.722656 -9.722656 14.332031 -8.109375 18.96875 -8.109375 C 21.8125 -8.109375 23.234375 -9 23.234375 -10.78125 C 23.234375 -11.800781 22.546875 -12.644531 21.171875 -13.3125 C 19.796875 -13.988281 18.117188 -14.59375 16.140625 -15.125 C 14.160156 -15.65625 12.179688 -16.316406 10.203125 -17.109375 C 8.222656 -17.910156 6.546875 -19.15625 5.171875 -20.84375 C 3.796875 -22.53125 3.109375 -24.65625 3.109375 -27.21875 C 3.109375 -31.125 4.578125 -34.160156 7.515625 -36.328125 C 10.460938 -38.503906 14.28125 -39.59375 18.96875 -39.59375 Z M 18.96875 -39.59375 "/></g></g></g><g fill="#ffffff" fill-opacity="1"><g transform="translate(94.862753, 251.675931)"><g><path d="M 5.484375 -11.203125 C 7.304688 -11.203125 8.695312 -10.734375 9.65625 -9.796875 C 10.613281 -8.859375 11.09375 -7.460938 11.09375 -5.609375 C 11.09375 -3.753906 10.613281 -2.351562 9.65625 -1.40625 C 8.695312 -0.46875 7.304688 0 5.484375 0 L 1.453125 0 L 1.453125 -11.203125 Z M 5.359375 -1.859375 C 6.515625 -1.859375 7.378906 -2.15625 7.953125 -2.75 C 8.523438 -3.34375 8.8125 -4.296875 8.8125 -5.609375 C 8.8125 -6.921875 8.523438 -7.867188 7.953125 -8.453125 C 7.378906 -9.046875 6.515625 -9.34375 5.359375 -9.34375 L 3.671875 -9.34375 L 3.671875 -1.859375 Z M 5.359375 -1.859375 "/></g></g></g><g fill="#ffffff" fill-opacity="1"><g transform="translate(106.84712, 251.675931)"><g><path d="M 8.359375 -3.75 L 2.921875 -3.75 C 2.984375 -3.007812 3.191406 -2.472656 3.546875 -2.140625 C 3.910156 -1.804688 4.398438 -1.640625 5.015625 -1.640625 C 5.503906 -1.640625 5.894531 -1.726562 6.1875 -1.90625 C 6.488281 -2.09375 6.734375 -2.367188 6.921875 -2.734375 L 7.078125 -2.734375 L 8.5 -1.828125 C 8.21875 -1.234375 7.796875 -0.753906 7.234375 -0.390625 C 6.679688 -0.0234375 5.941406 0.15625 5.015625 0.15625 C 4.140625 0.15625 3.382812 -0.00390625 2.75 -0.328125 C 2.113281 -0.660156 1.625 -1.15625 1.28125 -1.8125 C 0.9375 -2.476562 0.765625 -3.28125 0.765625 -4.21875 C 0.765625 -5.1875 0.941406 -6 1.296875 -6.65625 C 1.660156 -7.3125 2.148438 -7.800781 2.765625 -8.125 C 3.390625 -8.457031 4.085938 -8.625 4.859375 -8.625 C 6.054688 -8.625 6.972656 -8.304688 7.609375 -7.671875 C 8.242188 -7.035156 8.5625 -6.101562 8.5625 -4.875 C 8.5625 -4.425781 8.546875 -4.082031 8.515625 -3.84375 Z M 6.53125 -5.125 C 6.507812 -5.769531 6.359375 -6.238281 6.078125 -6.53125 C 5.804688 -6.820312 5.398438 -6.96875 4.859375 -6.96875 C 3.785156 -6.96875 3.15625 -6.351562 2.96875 -5.125 Z M 6.53125 -5.125 "/></g></g></g><g fill="#ffffff" fill-opacity="1"><g transform="translate(116.040501, 251.675931)"><g><path d="M 3.953125 0.15625 C 3.378906 0.15625 2.851562 0.0859375 2.375 -0.046875 C 1.894531 -0.179688 1.484375 -0.363281 1.140625 -0.59375 C 0.796875 -0.832031 0.546875 -1.109375 0.390625 -1.421875 L 1.5625 -2.6875 L 1.71875 -2.6875 C 2 -2.3125 2.332031 -2.03125 2.71875 -1.84375 C 3.101562 -1.65625 3.519531 -1.5625 3.96875 -1.5625 C 4.382812 -1.5625 4.695312 -1.632812 4.90625 -1.78125 C 5.113281 -1.925781 5.21875 -2.140625 5.21875 -2.421875 C 5.21875 -2.628906 5.140625 -2.804688 4.984375 -2.953125 C 4.835938 -3.097656 4.597656 -3.210938 4.265625 -3.296875 L 3.140625 -3.5625 C 2.304688 -3.757812 1.695312 -4.0625 1.3125 -4.46875 C 0.925781 -4.882812 0.734375 -5.410156 0.734375 -6.046875 C 0.734375 -6.578125 0.863281 -7.035156 1.125 -7.421875 C 1.394531 -7.804688 1.773438 -8.101562 2.265625 -8.3125 C 2.753906 -8.519531 3.320312 -8.625 3.96875 -8.625 C 4.726562 -8.625 5.359375 -8.507812 5.859375 -8.28125 C 6.359375 -8.0625 6.75 -7.769531 7.03125 -7.40625 L 5.90625 -6.1875 L 5.75 -6.1875 C 5.507812 -6.445312 5.242188 -6.640625 4.953125 -6.765625 C 4.660156 -6.890625 4.332031 -6.953125 3.96875 -6.953125 C 3.132812 -6.953125 2.71875 -6.691406 2.71875 -6.171875 C 2.71875 -5.941406 2.796875 -5.757812 2.953125 -5.625 C 3.109375 -5.488281 3.378906 -5.378906 3.765625 -5.296875 L 4.8125 -5.0625 C 5.675781 -4.875 6.304688 -4.578125 6.703125 -4.171875 C 7.097656 -3.765625 7.296875 -3.21875 7.296875 -2.53125 C 7.296875 -2 7.160156 -1.523438 6.890625 -1.109375 C 6.628906 -0.703125 6.242188 -0.390625 5.734375 -0.171875 C 5.234375 0.046875 4.640625 0.15625 3.953125 0.15625 Z M 3.953125 0.15625 "/></g></g></g><g fill="#ffffff" fill-opacity="1"><g transform="translate(123.83839, 251.675931)"><g><path d="M 4.9375 0.15625 C 4.113281 0.15625 3.382812 -0.0078125 2.75 -0.34375 C 2.125 -0.6875 1.632812 -1.1875 1.28125 -1.84375 C 0.9375 -2.507812 0.765625 -3.300781 0.765625 -4.21875 C 0.765625 -5.15625 0.9375 -5.953125 1.28125 -6.609375 C 1.632812 -7.265625 2.125 -7.765625 2.75 -8.109375 C 3.375 -8.453125 4.085938 -8.625 4.890625 -8.625 C 6.671875 -8.625 7.8125 -7.972656 8.3125 -6.671875 L 6.859375 -5.640625 L 6.703125 -5.640625 C 6.523438 -6.035156 6.296875 -6.328125 6.015625 -6.515625 C 5.742188 -6.710938 5.367188 -6.8125 4.890625 -6.8125 C 4.273438 -6.8125 3.796875 -6.597656 3.453125 -6.171875 C 3.109375 -5.753906 2.9375 -5.101562 2.9375 -4.21875 C 2.9375 -3.351562 3.109375 -2.707031 3.453125 -2.28125 C 3.804688 -1.851562 4.300781 -1.640625 4.9375 -1.640625 C 5.394531 -1.640625 5.78125 -1.765625 6.09375 -2.015625 C 6.414062 -2.265625 6.644531 -2.617188 6.78125 -3.078125 L 6.953125 -3.09375 L 8.453125 -2.265625 C 8.242188 -1.554688 7.847656 -0.972656 7.265625 -0.515625 C 6.679688 -0.0664062 5.90625 0.15625 4.9375 0.15625 Z M 4.9375 0.15625 "/></g></g></g><g fill="#ffffff" fill-opacity="1"><g transform="translate(132.556385, 251.675931)"><g><path d="M 3.875 0.15625 C 2.925781 0.15625 2.222656 -0.0976562 1.765625 -0.609375 C 1.316406 -1.128906 1.09375 -1.878906 1.09375 -2.859375 L 1.09375 -8.453125 L 3.21875 -8.453125 L 3.21875 -3.125 C 3.21875 -2.601562 3.328125 -2.222656 3.546875 -1.984375 C 3.765625 -1.753906 4.109375 -1.640625 4.578125 -1.640625 C 5.160156 -1.640625 5.613281 -1.832031 5.9375 -2.21875 C 6.269531 -2.601562 6.4375 -3.207031 6.4375 -4.03125 L 6.4375 -8.453125 L 8.5625 -8.453125 L 8.5625 0 L 6.53125 0 L 6.53125 -1.234375 L 6.359375 -1.28125 C 6.085938 -0.789062 5.753906 -0.425781 5.359375 -0.1875 C 4.972656 0.0390625 4.476562 0.15625 3.875 0.15625 Z M 3.875 0.15625 "/></g></g></g><g fill="#ffffff" fill-opacity="1"><g transform="translate(142.340167, 251.675931)"><g><path d="M 5.90625 0.15625 C 4.832031 0.15625 4.03125 -0.242188 3.5 -1.046875 L 3.34375 -1.015625 L 3.34375 0 L 1.21875 0 L 1.21875 -11.859375 L 3.34375 -11.859375 L 3.34375 -7.453125 L 3.5 -7.4375 C 3.789062 -7.832031 4.132812 -8.128906 4.53125 -8.328125 C 4.925781 -8.523438 5.398438 -8.625 5.953125 -8.625 C 6.640625 -8.625 7.238281 -8.460938 7.75 -8.140625 C 8.257812 -7.816406 8.65625 -7.328125 8.9375 -6.671875 C 9.226562 -6.015625 9.375 -5.195312 9.375 -4.21875 C 9.375 -3.257812 9.222656 -2.453125 8.921875 -1.796875 C 8.628906 -1.140625 8.222656 -0.648438 7.703125 -0.328125 C 7.179688 -0.00390625 6.582031 0.15625 5.90625 0.15625 Z M 5.265625 -1.640625 C 5.890625 -1.640625 6.363281 -1.847656 6.6875 -2.265625 C 7.019531 -2.679688 7.1875 -3.332031 7.1875 -4.21875 C 7.1875 -5.113281 7.019531 -5.769531 6.6875 -6.1875 C 6.363281 -6.601562 5.890625 -6.8125 5.265625 -6.8125 C 4.671875 -6.8125 4.195312 -6.597656 3.84375 -6.171875 C 3.488281 -5.742188 3.3125 -5.09375 3.3125 -4.21875 C 3.3125 -3.351562 3.488281 -2.707031 3.84375 -2.28125 C 4.195312 -1.851562 4.671875 -1.640625 5.265625 -1.640625 Z M 5.265625 -1.640625 "/></g></g></g><g fill="#ffffff" fill-opacity="1"><g transform="translate(152.468988, 251.675931)"><g><path d="M 1.21875 0 L 1.21875 -8.453125 L 3.28125 -8.453125 L 3.28125 -7.203125 L 3.4375 -7.171875 C 3.644531 -7.640625 3.914062 -7.984375 4.25 -8.203125 C 4.582031 -8.421875 4.984375 -8.53125 5.453125 -8.53125 C 5.941406 -8.53125 6.3125 -8.445312 6.5625 -8.28125 L 6.203125 -6.453125 L 6.03125 -6.421875 C 5.894531 -6.484375 5.757812 -6.523438 5.625 -6.546875 C 5.5 -6.578125 5.347656 -6.59375 5.171875 -6.59375 C 4.578125 -6.59375 4.125 -6.382812 3.8125 -5.96875 C 3.5 -5.550781 3.34375 -4.878906 3.34375 -3.953125 L 3.34375 0 Z M 1.21875 0 "/></g></g></g><g fill="#ffffff" fill-opacity="1"><g transform="translate(159.101411, 251.675931)"><g><path d="M 3.296875 0.15625 C 2.753906 0.15625 2.28125 0.0546875 1.875 -0.140625 C 1.476562 -0.335938 1.171875 -0.628906 0.953125 -1.015625 C 0.742188 -1.398438 0.640625 -1.863281 0.640625 -2.40625 C 0.640625 -2.90625 0.742188 -3.320312 0.953125 -3.65625 C 1.171875 -4 1.503906 -4.28125 1.953125 -4.5 C 2.410156 -4.71875 3 -4.882812 3.71875 -5 C 4.226562 -5.082031 4.613281 -5.171875 4.875 -5.265625 C 5.144531 -5.367188 5.320312 -5.476562 5.40625 -5.59375 C 5.5 -5.71875 5.546875 -5.878906 5.546875 -6.078125 C 5.546875 -6.347656 5.453125 -6.550781 5.265625 -6.6875 C 5.078125 -6.832031 4.765625 -6.90625 4.328125 -6.90625 C 3.859375 -6.90625 3.410156 -6.800781 2.984375 -6.59375 C 2.554688 -6.382812 2.1875 -6.109375 1.875 -5.765625 L 1.71875 -5.765625 L 0.828125 -7.109375 C 1.265625 -7.585938 1.789062 -7.957031 2.40625 -8.21875 C 3.019531 -8.488281 3.695312 -8.625 4.4375 -8.625 C 5.550781 -8.625 6.359375 -8.382812 6.859375 -7.90625 C 7.359375 -7.425781 7.609375 -6.75 7.609375 -5.875 L 7.609375 -2.203125 C 7.609375 -1.828125 7.773438 -1.640625 8.109375 -1.640625 C 8.234375 -1.640625 8.359375 -1.660156 8.484375 -1.703125 L 8.59375 -1.671875 L 8.75 -0.203125 C 8.632812 -0.117188 8.46875 -0.0507812 8.25 0 C 8.039062 0.0390625 7.8125 0.0625 7.5625 0.0625 C 7.0625 0.0625 6.664062 -0.03125 6.375 -0.21875 C 6.09375 -0.414062 5.894531 -0.722656 5.78125 -1.140625 L 5.609375 -1.15625 C 5.191406 -0.28125 4.421875 0.15625 3.296875 0.15625 Z M 3.96875 -1.421875 C 4.457031 -1.421875 4.847656 -1.585938 5.140625 -1.921875 C 5.441406 -2.253906 5.59375 -2.710938 5.59375 -3.296875 L 5.59375 -4.15625 L 5.4375 -4.1875 C 5.3125 -4.082031 5.144531 -3.992188 4.9375 -3.921875 C 4.726562 -3.859375 4.429688 -3.789062 4.046875 -3.71875 C 3.585938 -3.644531 3.253906 -3.515625 3.046875 -3.328125 C 2.847656 -3.140625 2.75 -2.875 2.75 -2.53125 C 2.75 -2.175781 2.851562 -1.898438 3.0625 -1.703125 C 3.28125 -1.515625 3.582031 -1.421875 3.96875 -1.421875 Z M 3.96875 -1.421875 "/></g></g></g><g fill="#ffffff" fill-opacity="1"><g transform="translate(168.018762, 251.675931)"><g><path d="M 2.15625 0.0625 C 1.882812 0.0625 1.644531 0.0078125 1.4375 -0.09375 C 1.238281 -0.207031 1.082031 -0.359375 0.96875 -0.546875 C 0.863281 -0.742188 0.8125 -0.96875 0.8125 -1.21875 C 0.8125 -1.457031 0.863281 -1.671875 0.96875 -1.859375 C 1.082031 -2.054688 1.238281 -2.210938 1.4375 -2.328125 C 1.644531 -2.441406 1.882812 -2.5 2.15625 -2.5 C 2.4375 -2.5 2.679688 -2.441406 2.890625 -2.328125 C 3.097656 -2.222656 3.253906 -2.070312 3.359375 -1.875 C 3.472656 -1.6875 3.53125 -1.46875 3.53125 -1.21875 C 3.53125 -0.84375 3.40625 -0.535156 3.15625 -0.296875 C 2.90625 -0.0546875 2.570312 0.0625 2.15625 0.0625 Z M 2.15625 0.0625 "/></g></g></g><g fill="#ffffff" fill-opacity="1"><g transform="translate(172.350922, 251.675931)"><g/></g></g><g fill="#ffffff" fill-opacity="1"><g transform="translate(176.054345, 251.675931)"><g><path d="M 3.921875 0.15625 C 2.972656 0.15625 2.179688 -0.0195312 1.546875 -0.375 C 0.921875 -0.738281 0.46875 -1.222656 0.1875 -1.828125 L 1.4375 -3.34375 L 1.625 -3.34375 C 1.832031 -2.851562 2.125 -2.46875 2.5 -2.1875 C 2.875 -1.90625 3.304688 -1.765625 3.796875 -1.765625 C 4.359375 -1.765625 4.773438 -1.925781 5.046875 -2.25 C 5.316406 -2.570312 5.453125 -3.097656 5.453125 -3.828125 L 5.453125 -11.203125 L 7.65625 -11.203125 L 7.65625 -3.796875 C 7.65625 -2.441406 7.347656 -1.441406 6.734375 -0.796875 C 6.117188 -0.160156 5.179688 0.15625 3.921875 0.15625 Z M 3.921875 0.15625 "/></g></g></g><g fill="#ffffff" fill-opacity="1"><g transform="translate(185.102043, 251.675931)"><g><path d="M 3.875 0.15625 C 2.925781 0.15625 2.222656 -0.0976562 1.765625 -0.609375 C 1.316406 -1.128906 1.09375 -1.878906 1.09375 -2.859375 L 1.09375 -8.453125 L 3.21875 -8.453125 L 3.21875 -3.125 C 3.21875 -2.601562 3.328125 -2.222656 3.546875 -1.984375 C 3.765625 -1.753906 4.109375 -1.640625 4.578125 -1.640625 C 5.160156 -1.640625 5.613281 -1.832031 5.9375 -2.21875 C 6.269531 -2.601562 6.4375 -3.207031 6.4375 -4.03125 L 6.4375 -8.453125 L 8.5625 -8.453125 L 8.5625 0 L 6.53125 0 L 6.53125 -1.234375 L 6.359375 -1.28125 C 6.085938 -0.789062 5.753906 -0.425781 5.359375 -0.1875 C 4.972656 0.0390625 4.476562 0.15625 3.875 0.15625 Z M 3.875 0.15625 "/></g></g></g><g fill="#ffffff" fill-opacity="1"><g transform="translate(194.885825, 251.675931)"><g><path d="M 1.21875 0 L 1.21875 -8.453125 L 3.265625 -8.453125 L 3.265625 -7.21875 L 3.421875 -7.171875 C 3.941406 -8.140625 4.796875 -8.625 5.984375 -8.625 C 6.953125 -8.625 7.664062 -8.359375 8.125 -7.828125 C 8.582031 -7.296875 8.8125 -6.519531 8.8125 -5.5 L 8.8125 0 L 6.6875 0 L 6.6875 -5.234375 C 6.6875 -5.796875 6.570312 -6.203125 6.34375 -6.453125 C 6.125 -6.703125 5.769531 -6.828125 5.28125 -6.828125 C 4.664062 -6.828125 4.1875 -6.628906 3.84375 -6.234375 C 3.507812 -5.835938 3.34375 -5.21875 3.34375 -4.375 L 3.34375 0 Z M 1.21875 0 "/></g></g></g><g fill="#ffffff" fill-opacity="1"><g transform="translate(204.792288, 251.675931)"><g><path d="M 5.828125 -2.015625 L 6.390625 -0.4375 C 6.160156 -0.25 5.867188 -0.101562 5.515625 0 C 5.171875 0.101562 4.78125 0.15625 4.34375 0.15625 C 3.425781 0.15625 2.726562 -0.0859375 2.25 -0.578125 C 1.78125 -1.078125 1.546875 -1.804688 1.546875 -2.765625 L 1.546875 -6.78125 L 0.25 -6.78125 L 0.25 -8.46875 L 1.546875 -8.46875 L 1.546875 -10.109375 L 3.671875 -10.453125 L 3.671875 -8.46875 L 6.0625 -8.46875 L 6.0625 -6.78125 L 3.671875 -6.78125 L 3.671875 -2.90625 C 3.671875 -2.488281 3.753906 -2.179688 3.921875 -1.984375 C 4.097656 -1.796875 4.351562 -1.703125 4.6875 -1.703125 C 5.0625 -1.703125 5.390625 -1.804688 5.671875 -2.015625 Z M 5.828125 -2.015625 "/></g></g></g><g fill="#ffffff" fill-opacity="1"><g transform="translate(211.363371, 251.675931)"><g><path d="M 8.359375 -3.75 L 2.921875 -3.75 C 2.984375 -3.007812 3.191406 -2.472656 3.546875 -2.140625 C 3.910156 -1.804688 4.398438 -1.640625 5.015625 -1.640625 C 5.503906 -1.640625 5.894531 -1.726562 6.1875 -1.90625 C 6.488281 -2.09375 6.734375 -2.367188 6.921875 -2.734375 L 7.078125 -2.734375 L 8.5 -1.828125 C 8.21875 -1.234375 7.796875 -0.753906 7.234375 -0.390625 C 6.679688 -0.0234375 5.941406 0.15625 5.015625 0.15625 C 4.140625 0.15625 3.382812 -0.00390625 2.75 -0.328125 C 2.113281 -0.660156 1.625 -1.15625 1.28125 -1.8125 C 0.9375 -2.476562 0.765625 -3.28125 0.765625 -4.21875 C 0.765625 -5.1875 0.941406 -6 1.296875 -6.65625 C 1.660156 -7.3125 2.148438 -7.800781 2.765625 -8.125 C 3.390625 -8.457031 4.085938 -8.625 4.859375 -8.625 C 6.054688 -8.625 6.972656 -8.304688 7.609375 -7.671875 C 8.242188 -7.035156 8.5625 -6.101562 8.5625 -4.875 C 8.5625 -4.425781 8.546875 -4.082031 8.515625 -3.84375 Z M 6.53125 -5.125 C 6.507812 -5.769531 6.359375 -6.238281 6.078125 -6.53125 C 5.804688 -6.820312 5.398438 -6.96875 4.859375 -6.96875 C 3.785156 -6.96875 3.15625 -6.351562 2.96875 -5.125 Z M 6.53125 -5.125 "/></g></g></g><g fill="#ffffff" fill-opacity="1"><g transform="translate(220.556752, 251.675931)"><g><path d="M 5.375 -4.515625 L 0.671875 -4.515625 L 0.671875 -6.375 L 5.375 -6.375 Z M 5.375 -4.515625 "/></g></g></g><g fill="#ffffff" fill-opacity="1"><g transform="translate(226.606442, 251.675931)"><g><path d="M 3.953125 0.15625 C 3.378906 0.15625 2.851562 0.0859375 2.375 -0.046875 C 1.894531 -0.179688 1.484375 -0.363281 1.140625 -0.59375 C 0.796875 -0.832031 0.546875 -1.109375 0.390625 -1.421875 L 1.5625 -2.6875 L 1.71875 -2.6875 C 2 -2.3125 2.332031 -2.03125 2.71875 -1.84375 C 3.101562 -1.65625 3.519531 -1.5625 3.96875 -1.5625 C 4.382812 -1.5625 4.695312 -1.632812 4.90625 -1.78125 C 5.113281 -1.925781 5.21875 -2.140625 5.21875 -2.421875 C 5.21875 -2.628906 5.140625 -2.804688 4.984375 -2.953125 C 4.835938 -3.097656 4.597656 -3.210938 4.265625 -3.296875 L 3.140625 -3.5625 C 2.304688 -3.757812 1.695312 -4.0625 1.3125 -4.46875 C 0.925781 -4.882812 0.734375 -5.410156 0.734375 -6.046875 C 0.734375 -6.578125 0.863281 -7.035156 1.125 -7.421875 C 1.394531 -7.804688 1.773438 -8.101562 2.265625 -8.3125 C 2.753906 -8.519531 3.320312 -8.625 3.96875 -8.625 C 4.726562 -8.625 5.359375 -8.507812 5.859375 -8.28125 C 6.359375 -8.0625 6.75 -7.769531 7.03125 -7.40625 L 5.90625 -6.1875 L 5.75 -6.1875 C 5.507812 -6.445312 5.242188 -6.640625 4.953125 -6.765625 C 4.660156 -6.890625 4.332031 -6.953125 3.96875 -6.953125 C 3.132812 -6.953125 2.71875 -6.691406 2.71875 -6.171875 C 2.71875 -5.941406 2.796875 -5.757812 2.953125 -5.625 C 3.109375 -5.488281 3.378906 -5.378906 3.765625 -5.296875 L 4.8125 -5.0625 C 5.675781 -4.875 6.304688 -4.578125 6.703125 -4.171875 C 7.097656 -3.765625 7.296875 -3.21875 7.296875 -2.53125 C 7.296875 -2 7.160156 -1.523438 6.890625 -1.109375 C 6.628906 -0.703125 6.242188 -0.390625 5.734375 -0.171875 C 5.234375 0.046875 4.640625 0.15625 3.953125 0.15625 Z M 3.953125 0.15625 "/></g></g></g><g fill="#ffffff" fill-opacity="1"><g transform="translate(234.404332, 251.675931)"><g><path d="M 8.359375 -3.75 L 2.921875 -3.75 C 2.984375 -3.007812 3.191406 -2.472656 3.546875 -2.140625 C 3.910156 -1.804688 4.398438 -1.640625 5.015625 -1.640625 C 5.503906 -1.640625 5.894531 -1.726562 6.1875 -1.90625 C 6.488281 -2.09375 6.734375 -2.367188 6.921875 -2.734375 L 7.078125 -2.734375 L 8.5 -1.828125 C 8.21875 -1.234375 7.796875 -0.753906 7.234375 -0.390625 C 6.679688 -0.0234375 5.941406 0.15625 5.015625 0.15625 C 4.140625 0.15625 3.382812 -0.00390625 2.75 -0.328125 C 2.113281 -0.660156 1.625 -1.15625 1.28125 -1.8125 C 0.9375 -2.476562 0.765625 -3.28125 0.765625 -4.21875 C 0.765625 -5.1875 0.941406 -6 1.296875 -6.65625 C 1.660156 -7.3125 2.148438 -7.800781 2.765625 -8.125 C 3.390625 -8.457031 4.085938 -8.625 4.859375 -8.625 C 6.054688 -8.625 6.972656 -8.304688 7.609375 -7.671875 C 8.242188 -7.035156 8.5625 -6.101562 8.5625 -4.875 C 8.5625 -4.425781 8.546875 -4.082031 8.515625 -3.84375 Z M 6.53125 -5.125 C 6.507812 -5.769531 6.359375 -6.238281 6.078125 -6.53125 C 5.804688 -6.820312 5.398438 -6.96875 4.859375 -6.96875 C 3.785156 -6.96875 3.15625 -6.351562 2.96875 -5.125 Z M 6.53125 -5.125 "/></g></g></g><g fill="#ffffff" fill-opacity="1"><g transform="translate(243.597713, 251.675931)"><g><path d="M 2.15625 0.0625 C 1.882812 0.0625 1.644531 0.0078125 1.4375 -0.09375 C 1.238281 -0.207031 1.082031 -0.359375 0.96875 -0.546875 C 0.863281 -0.742188 0.8125 -0.96875 0.8125 -1.21875 C 0.8125 -1.457031 0.863281 -1.671875 0.96875 -1.859375 C 1.082031 -2.054688 1.238281 -2.210938 1.4375 -2.328125 C 1.644531 -2.441406 1.882812 -2.5 2.15625 -2.5 C 2.4375 -2.5 2.679688 -2.441406 2.890625 -2.328125 C 3.097656 -2.222656 3.253906 -2.070312 3.359375 -1.875 C 3.472656 -1.6875 3.53125 -1.46875 3.53125 -1.21875 C 3.53125 -0.84375 3.40625 -0.535156 3.15625 -0.296875 C 2.90625 -0.0546875 2.570312 0.0625 2.15625 0.0625 Z M 2.15625 0.0625 "/></g></g></g><g fill="#ffffff" fill-opacity="1"><g transform="translate(247.929874, 251.675931)"><g/></g></g><g fill="#ffffff" fill-opacity="1"><g transform="translate(251.633296, 251.675931)"><g><path d="M 3.921875 0.15625 C 2.972656 0.15625 2.179688 -0.0195312 1.546875 -0.375 C 0.921875 -0.738281 0.46875 -1.222656 0.1875 -1.828125 L 1.4375 -3.34375 L 1.625 -3.34375 C 1.832031 -2.851562 2.125 -2.46875 2.5 -2.1875 C 2.875 -1.90625 3.304688 -1.765625 3.796875 -1.765625 C 4.359375 -1.765625 4.773438 -1.925781 5.046875 -2.25 C 5.316406 -2.570312 5.453125 -3.097656 5.453125 -3.828125 L 5.453125 -11.203125 L 7.65625 -11.203125 L 7.65625 -3.796875 C 7.65625 -2.441406 7.347656 -1.441406 6.734375 -0.796875 C 6.117188 -0.160156 5.179688 0.15625 3.921875 0.15625 Z M 3.921875 0.15625 "/></g></g></g><g fill="#ffffff" fill-opacity="1"><g transform="translate(260.680995, 251.675931)"><g><path d="M 4.921875 0.15625 C 4.085938 0.15625 3.359375 -0.0078125 2.734375 -0.34375 C 2.109375 -0.6875 1.625 -1.1875 1.28125 -1.84375 C 0.9375 -2.5 0.765625 -3.289062 0.765625 -4.21875 C 0.765625 -5.15625 0.9375 -5.953125 1.28125 -6.609375 C 1.625 -7.265625 2.109375 -7.765625 2.734375 -8.109375 C 3.359375 -8.453125 4.085938 -8.625 4.921875 -8.625 C 5.742188 -8.625 6.46875 -8.453125 7.09375 -8.109375 C 7.71875 -7.765625 8.203125 -7.265625 8.546875 -6.609375 C 8.898438 -5.953125 9.078125 -5.15625 9.078125 -4.21875 C 9.078125 -3.289062 8.898438 -2.5 8.546875 -1.84375 C 8.203125 -1.1875 7.71875 -0.6875 7.09375 -0.34375 C 6.46875 -0.0078125 5.742188 0.15625 4.921875 0.15625 Z M 4.921875 -1.640625 C 6.234375 -1.640625 6.890625 -2.5 6.890625 -4.21875 C 6.890625 -5.113281 6.71875 -5.769531 6.375 -6.1875 C 6.039062 -6.601562 5.554688 -6.8125 4.921875 -6.8125 C 3.597656 -6.8125 2.9375 -5.945312 2.9375 -4.21875 C 2.9375 -2.5 3.597656 -1.640625 4.921875 -1.640625 Z M 4.921875 -1.640625 "/></g></g></g><g fill="#ffffff" fill-opacity="1"><g transform="translate(270.510782, 251.675931)"><g><path d="M 4.390625 3.59375 C 2.992188 3.59375 1.960938 3.382812 1.296875 2.96875 C 0.628906 2.5625 0.296875 1.992188 0.296875 1.265625 C 0.296875 0.816406 0.4375 0.453125 0.71875 0.171875 C 1.007812 -0.109375 1.421875 -0.300781 1.953125 -0.40625 L 1.953125 -0.5625 C 1.660156 -0.738281 1.453125 -0.929688 1.328125 -1.140625 C 1.203125 -1.347656 1.140625 -1.59375 1.140625 -1.875 C 1.140625 -2.550781 1.582031 -3.007812 2.46875 -3.25 L 2.46875 -3.40625 C 2.007812 -3.664062 1.664062 -3.988281 1.4375 -4.375 C 1.207031 -4.757812 1.09375 -5.226562 1.09375 -5.78125 C 1.09375 -6.34375 1.222656 -6.835938 1.484375 -7.265625 C 1.742188 -7.691406 2.117188 -8.023438 2.609375 -8.265625 C 3.109375 -8.503906 3.707031 -8.625 4.40625 -8.625 C 5.113281 -8.625 5.675781 -8.5 6.09375 -8.25 C 6.351562 -8.625 6.503906 -9.0625 6.546875 -9.5625 L 6.703125 -9.65625 L 8.234375 -9.28125 C 8.191406 -8.875 8.070312 -8.535156 7.875 -8.265625 C 7.6875 -7.992188 7.394531 -7.75 7 -7.53125 L 7 -7.375 C 7.476562 -6.945312 7.71875 -6.359375 7.71875 -5.609375 C 7.71875 -5.085938 7.585938 -4.617188 7.328125 -4.203125 C 7.066406 -3.796875 6.6875 -3.472656 6.1875 -3.234375 C 5.6875 -2.992188 5.09375 -2.875 4.40625 -2.875 L 4.09375 -2.875 C 3.882812 -2.882812 3.738281 -2.890625 3.65625 -2.890625 C 3.457031 -2.890625 3.300781 -2.835938 3.1875 -2.734375 C 3.082031 -2.628906 3.03125 -2.492188 3.03125 -2.328125 C 3.03125 -2.148438 3.101562 -2.007812 3.25 -1.90625 C 3.394531 -1.8125 3.601562 -1.757812 3.875 -1.75 L 5.78125 -1.671875 C 7.644531 -1.617188 8.578125 -0.816406 8.578125 0.734375 C 8.578125 1.285156 8.4375 1.773438 8.15625 2.203125 C 7.882812 2.628906 7.4375 2.96875 6.8125 3.21875 C 6.1875 3.46875 5.378906 3.59375 4.390625 3.59375 Z M 4.40625 -4.359375 C 4.8125 -4.359375 5.128906 -4.476562 5.359375 -4.71875 C 5.597656 -4.957031 5.71875 -5.300781 5.71875 -5.75 C 5.71875 -6.1875 5.597656 -6.523438 5.359375 -6.765625 C 5.128906 -7.003906 4.8125 -7.125 4.40625 -7.125 C 3.988281 -7.125 3.664062 -7.003906 3.4375 -6.765625 C 3.21875 -6.523438 3.109375 -6.1875 3.109375 -5.75 C 3.109375 -5.289062 3.21875 -4.941406 3.4375 -4.703125 C 3.664062 -4.472656 3.988281 -4.359375 4.40625 -4.359375 Z M 4.390625 2.046875 C 5.109375 2.046875 5.632812 1.941406 5.96875 1.734375 C 6.300781 1.535156 6.46875 1.269531 6.46875 0.9375 C 6.46875 0.675781 6.378906 0.484375 6.203125 0.359375 C 6.035156 0.234375 5.769531 0.164062 5.40625 0.15625 L 3.734375 0.078125 C 3.679688 0.078125 3.628906 0.0703125 3.578125 0.0625 C 3.523438 0.0625 3.476562 0.0625 3.4375 0.0625 C 3.070312 0.0625 2.796875 0.132812 2.609375 0.28125 C 2.429688 0.4375 2.34375 0.648438 2.34375 0.921875 C 2.34375 1.285156 2.507812 1.5625 2.84375 1.75 C 3.1875 1.945312 3.703125 2.046875 4.390625 2.046875 Z M 4.390625 2.046875 "/></g></g></g><g fill="#ffffff" fill-opacity="1"><g transform="translate(279.305452, 251.675931)"><g><path d="M 3.875 0.15625 C 2.925781 0.15625 2.222656 -0.0976562 1.765625 -0.609375 C 1.316406 -1.128906 1.09375 -1.878906 1.09375 -2.859375 L 1.09375 -8.453125 L 3.21875 -8.453125 L 3.21875 -3.125 C 3.21875 -2.601562 3.328125 -2.222656 3.546875 -1.984375 C 3.765625 -1.753906 4.109375 -1.640625 4.578125 -1.640625 C 5.160156 -1.640625 5.613281 -1.832031 5.9375 -2.21875 C 6.269531 -2.601562 6.4375 -3.207031 6.4375 -4.03125 L 6.4375 -8.453125 L 8.5625 -8.453125 L 8.5625 0 L 6.53125 0 L 6.53125 -1.234375 L 6.359375 -1.28125 C 6.085938 -0.789062 5.753906 -0.425781 5.359375 -0.1875 C 4.972656 0.0390625 4.476562 0.15625 3.875 0.15625 Z M 3.875 0.15625 "/></g></g></g><g fill="#ffffff" fill-opacity="1"><g transform="translate(289.089234, 251.675931)"><g><path d="M 8.359375 -3.75 L 2.921875 -3.75 C 2.984375 -3.007812 3.191406 -2.472656 3.546875 -2.140625 C 3.910156 -1.804688 4.398438 -1.640625 5.015625 -1.640625 C 5.503906 -1.640625 5.894531 -1.726562 6.1875 -1.90625 C 6.488281 -2.09375 6.734375 -2.367188 6.921875 -2.734375 L 7.078125 -2.734375 L 8.5 -1.828125 C 8.21875 -1.234375 7.796875 -0.753906 7.234375 -0.390625 C 6.679688 -0.0234375 5.941406 0.15625 5.015625 0.15625 C 4.140625 0.15625 3.382812 -0.00390625 2.75 -0.328125 C 2.113281 -0.660156 1.625 -1.15625 1.28125 -1.8125 C 0.9375 -2.476562 0.765625 -3.28125 0.765625 -4.21875 C 0.765625 -5.1875 0.941406 -6 1.296875 -6.65625 C 1.660156 -7.3125 2.148438 -7.800781 2.765625 -8.125 C 3.390625 -8.457031 4.085938 -8.625 4.859375 -8.625 C 6.054688 -8.625 6.972656 -8.304688 7.609375 -7.671875 C 8.242188 -7.035156 8.5625 -6.101562 8.5625 -4.875 C 8.5625 -4.425781 8.546875 -4.082031 8.515625 -3.84375 Z M 6.53125 -5.125 C 6.507812 -5.769531 6.359375 -6.238281 6.078125 -6.53125 C 5.804688 -6.820312 5.398438 -6.96875 4.859375 -6.96875 C 3.785156 -6.96875 3.15625 -6.351562 2.96875 -5.125 Z M 6.53125 -5.125 "/></g></g></g><g fill="#ffffff" fill-opacity="1"><g transform="translate(298.282616, 251.675931)"><g><path d="M 2.15625 0.0625 C 1.882812 0.0625 1.644531 0.0078125 1.4375 -0.09375 C 1.238281 -0.207031 1.082031 -0.359375 0.96875 -0.546875 C 0.863281 -0.742188 0.8125 -0.96875 0.8125 -1.21875 C 0.8125 -1.457031 0.863281 -1.671875 0.96875 -1.859375 C 1.082031 -2.054688 1.238281 -2.210938 1.4375 -2.328125 C 1.644531 -2.441406 1.882812 -2.5 2.15625 -2.5 C 2.4375 -2.5 2.679688 -2.441406 2.890625 -2.328125 C 3.097656 -2.222656 3.253906 -2.070312 3.359375 -1.875 C 3.472656 -1.6875 3.53125 -1.46875 3.53125 -1.21875 C 3.53125 -0.84375 3.40625 -0.535156 3.15625 -0.296875 C 2.90625 -0.0546875 2.570312 0.0625 2.15625 0.0625 Z M 2.15625 0.0625 "/></g></g></g><g fill="#ffffff" fill-opacity="1"><g transform="translate(302.624458, 251.675931)"><g/></g></g></svg>